<svg width="32" height="32" viewBox="0 0 32 32" fill="none" xmlns="http://www.w3.org/2000/svg">
<path d="M24.3483 8.24303C24.3416 8.22984 24.3305 8.2195 24.3171 8.21387C22.761 7.48506 21.1189 6.96536 19.4319 6.66778C19.4166 6.66487 19.4008 6.66697 19.3867 6.67378C19.3726 6.68058 19.361 6.69175 19.3534 6.7057C19.1298 7.11998 18.9269 7.54553 18.7453 7.9807C16.9268 7.6989 15.077 7.6989 13.2585 7.9807C13.0757 7.54442 12.8695 7.11877 12.6407 6.7057C12.6329 6.69206 12.6212 6.68114 12.6072 6.67438C12.5932 6.66762 12.5775 6.66532 12.5622 6.66778C10.875 6.96473 9.2328 7.48447 7.67695 8.21391C7.66363 8.21967 7.65239 8.22951 7.64478 8.24208C4.53338 12.9853 3.68105 17.612 4.09918 22.1813C4.10035 22.1925 4.10373 22.2034 4.10909 22.2132C4.11445 22.223 4.1217 22.2317 4.1304 22.2386C5.94214 23.608 7.96859 24.6533 10.1233 25.3298C10.1385 25.3345 10.1547 25.3343 10.1697 25.3292C10.1848 25.3242 10.1979 25.3146 10.2075 25.3017C10.6703 24.6589 11.0803 23.9782 11.4335 23.2666C11.4383 23.2568 11.4411 23.2461 11.4416 23.2352C11.4421 23.2242 11.4404 23.2133 11.4364 23.2031C11.4325 23.1929 11.4265 23.1837 11.4188 23.1761C11.4111 23.1684 11.402 23.1625 11.3919 23.1587C10.7453 22.9062 10.1193 22.6017 9.51973 22.2482C9.50884 22.2417 9.49969 22.2325 9.4931 22.2215C9.4865 22.2105 9.48266 22.198 9.48191 22.1851C9.48117 22.1723 9.48354 22.1594 9.48882 22.1477C9.49409 22.136 9.50212 22.1257 9.51218 22.1179C9.63833 22.0218 9.7623 21.9226 9.88397 21.8206C9.89465 21.8116 9.90756 21.8058 9.92126 21.804C9.93496 21.8021 9.94891 21.8041 9.96153 21.8099C13.8893 23.6398 18.1416 23.6398 22.0228 21.8099C22.0354 21.8038 22.0495 21.8014 22.0634 21.8031C22.0773 21.8049 22.0905 21.8106 22.1013 21.8196C22.2231 21.9222 22.3474 22.0217 22.4741 22.1179C22.4842 22.1257 22.4923 22.1358 22.4976 22.1475C22.503 22.1592 22.5055 22.172 22.5048 22.1849C22.5041 22.1977 22.5004 22.2103 22.4939 22.2213C22.4874 22.2323 22.4783 22.2416 22.4674 22.2482C21.8693 22.6047 21.2427 22.909 20.5944 23.1578C20.5843 23.1617 20.5752 23.1677 20.5675 23.1755C20.5599 23.1833 20.554 23.1926 20.5501 23.2029C20.5463 23.2131 20.5446 23.2241 20.5452 23.2351C20.5458 23.2461 20.5486 23.2568 20.5536 23.2666C20.9126 23.9742 21.3221 24.654 21.7786 25.3005C21.7879 25.3138 21.801 25.3238 21.8161 25.329C21.8312 25.3342 21.8476 25.3345 21.8628 25.3297C24.0214 24.6555 26.0514 23.6101 27.8654 22.2386C27.8742 22.232 27.8816 22.2236 27.887 22.2139C27.8923 22.2042 27.8956 22.1934 27.8966 22.1823C28.3972 16.8996 27.0586 12.3109 24.3483 8.24303ZM12.0201 19.3991C10.8375 19.3991 9.86316 18.2913 9.86316 16.9308C9.86316 15.5703 10.8186 14.4624 12.0201 14.4624C13.2309 14.4624 14.1958 15.5799 14.1769 16.9307C14.1769 18.2913 13.2214 19.3991 12.0201 19.3991ZM19.9948 19.3991C18.8123 19.3991 17.8379 18.2913 17.8379 16.9308C17.8379 15.5703 18.7934 14.4624 19.9948 14.4624C21.2057 14.4624 22.1706 15.5799 22.1517 16.9307C22.1517 18.2913 21.2057 19.3991 19.9948 19.3991Z" fill="#A32015"/>
</svg>