<svg width="40" height="40" viewBox="0 0 40 40" fill="none" xmlns="http://www.w3.org/2000/svg">
<path d="M40 20C40 31.0457 31.0457 40 20 40C8.95431 40 0 31.0457 0 20C0 8.95431 8.95431 0 20 0C31.0457 0 40 8.95431 40 20ZM5 20C5 28.2843 11.7157 35 20 35C28.2843 35 35 28.2843 35 20C35 11.7157 28.2843 5 20 5C11.7157 5 5 11.7157 5 20Z" fill="#D9D9D9"/>
<path d="M37.5 20C38.8807 20 40.0161 18.8764 39.844 17.5065C39.6216 15.7368 39.163 14.0011 38.4776 12.3463C37.4725 9.91982 35.9993 7.71504 34.1421 5.85786C32.285 4.00069 30.0802 2.5275 27.6537 1.52241C25.9989 0.836996 24.2632 0.37842 22.4935 0.156048C21.1236 -0.0160942 20 1.11929 20 2.5V2.5C20 3.88071 21.1269 4.9788 22.4885 5.20785C23.6015 5.3951 24.6925 5.70783 25.7403 6.14181C27.5601 6.89563 29.2137 8.00052 30.6066 9.3934C31.9995 10.7863 33.1044 12.4399 33.8582 14.2597C34.2922 15.3075 34.6049 16.3985 34.7921 17.5115C35.0212 18.8731 36.1193 20 37.5 20V20Z" fill="#FF5353"/>
</svg>
