<svg height="16px" viewBox="0 0 16 16" fill="none" xmlns="http://www.w3.org/2000/svg" data-v-657d1012=""><circle cx="8" cy="8" r="7" stroke="#E4E6E9" stroke-width="2"></circle> <path d="M6.8892 9.86222H8.07173V9.76989C8.07884 9.01705 8.32386 8.67259 8.9027 8.31747C9.55611 7.92685 9.96449 7.39418 9.96449 6.58097C9.96449 5.38068 9.03054 4.62784 7.67401 4.62784C6.43111 4.62784 5.42259 5.31676 5.38707 6.66619H6.65128C6.68324 5.99858 7.16619 5.67898 7.6669 5.67898C8.21023 5.67898 8.64702 6.04119 8.64702 6.59872C8.64702 7.09588 8.31676 7.43679 7.88707 7.70668C7.25852 8.0973 6.89631 8.49148 6.8892 9.76989V9.86222ZM7.51065 12.0781C7.92969 12.0781 8.28835 11.7301 8.2919 11.2969C8.28835 10.8707 7.92969 10.5227 7.51065 10.5227C7.07741 10.5227 6.72585 10.8707 6.7294 11.2969C6.72585 11.7301 7.07741 12.0781 7.51065 12.0781Z" fill="#8F97A3"></path></svg>