<svg width="32" height="32" viewBox="0 0 32 32" fill="none" xmlns="http://www.w3.org/2000/svg">
<path d="M28 8.85713C27.1003 9.24069 26.1457 9.49277 25.168 9.60497C26.1948 9.01462 26.9625 8.08636 27.328 6.99331C26.3598 7.54481 25.3007 7.93389 24.196 8.14382C23.5192 7.45717 22.643 6.98116 21.6808 6.77746C20.7187 6.57376 19.7149 6.65175 18.7994 7.00133C17.884 7.35091 17.0992 7.95597 16.5466 8.73813C15.9939 9.5203 15.699 10.4435 15.7 11.3883C15.7016 11.7486 15.7459 12.1075 15.832 12.4582C13.8725 12.3628 11.9559 11.873 10.2068 11.0206C8.45769 10.1683 6.91533 8.9725 5.68 7.51104C5.24058 8.22987 5.00864 9.04789 5.008 9.88109C4.98621 10.6503 5.16591 11.4124 5.53068 12.0978C5.89544 12.7831 6.43363 13.3699 7.096 13.8043C6.28 13.7813 4.756 13.5742 4.756 13.2176V13.2751C4.78633 14.3698 5.20452 15.422 5.94174 16.2585C6.67895 17.0949 7.69125 17.6658 8.812 17.8771C8.42134 17.9822 8.01772 18.0364 7.612 18.0382C7.30999 18.0393 7.00859 18.0123 6.712 17.9577C7.02887 18.8959 7.64307 19.716 8.46904 20.3037C9.295 20.8915 10.2916 21.2176 11.32 21.2366C9.57887 22.5608 7.42237 23.2824 5.2 23.2845C4.79894 23.284 4.39825 23.2609 4 23.2155C6.25204 24.6009 8.87226 25.3358 11.548 25.3325C13.3946 25.3508 15.2266 25.0164 16.9369 24.3488C18.6473 23.6811 20.2019 22.6936 21.5099 21.4437C22.818 20.1939 23.8533 18.7068 24.5556 17.0693C25.2578 15.4317 25.6128 13.6765 25.6 11.906V11.2962C26.5431 10.6246 27.3555 9.79892 28 8.85713Z" fill="#fff"/>
</svg>