<svg width="24" height="29" viewBox="0 0 24 29" fill="none" xmlns="http://www.w3.org/2000/svg">
<path d="M14.25 4.7998H9.75C6.56802 4.7998 4.97703 4.7998 3.98851 6.00485C3 7.2099 3 9.14939 3 13.0284V15.7712C3 19.6502 3 21.5897 3.98851 22.7948C4.97703 23.9998 6.56802 23.9998 9.75 23.9998H14.25C17.432 23.9998 19.023 23.9998 20.0115 22.7948C21 21.5897 21 19.6502 21 15.7712V13.0284C21 9.14939 21 7.2099 20.0115 6.00485C19.023 4.7998 17.432 4.7998 14.25 4.7998Z" stroke="#A32015" stroke-width="2"/>
<path d="M7 9.6001H10" stroke="#A32015" stroke-width="2" stroke-linecap="round"/>
<path d="M15 17.2002V16.4002C15 15.4574 15 14.986 15.2929 14.6931C15.5858 14.4002 16.0572 14.4002 17 14.4002H19C19.9428 14.4002 20.4142 14.4002 20.7071 14.6931C21 14.986 21 15.4574 21 16.4002V17.2002C21 18.143 21 18.6144 20.7071 18.9073C20.4142 19.2002 19.9428 19.2002 19 19.2002H17C16.0572 19.2002 15.5858 19.2002 15.2929 18.9073C15 18.6144 15 18.143 15 17.2002Z" stroke="#A32015" stroke-width="2"/>
</svg>