<svg width="109" height="64" viewBox="0 0 109 64" fill="none" xmlns="http://www.w3.org/2000/svg">
<path fill-rule="evenodd" clip-rule="evenodd" d="M1.57617 50.6288H3.59751L6.88491 55.6985L10.172 50.6288H12.1936V61.3498H10.311V53.6612L6.90021 58.7154H6.83835L3.45882 53.6919V61.3498H1.57617V50.6288ZM21.5148 57.092L19.6477 52.8038L17.7957 57.092H21.5148ZM18.7987 50.5522H20.558L25.3113 61.3498H23.305L22.2095 58.7613H17.1013L15.9899 61.3498H14.0457L18.7987 50.5522ZM31.2607 56.2038C31.9831 56.2038 32.5545 56.0252 32.9712 55.6649C33.3902 55.3079 33.5985 54.8456 33.5985 54.2815V54.2512C33.5985 53.6153 33.3876 53.1356 32.9634 52.8138C32.5415 52.4897 31.973 52.3288 31.2607 52.3288H29.046V56.2038H31.2607ZM27.1631 50.6288H31.4225C32.0502 50.6288 32.6186 50.7131 33.1281 50.8815C33.6373 51.0501 34.0693 51.2927 34.4244 51.609C34.7793 51.9256 35.0518 52.3033 35.2422 52.7424C35.4323 53.1814 35.5277 53.6716 35.5277 54.2127V54.2434C35.5277 54.8456 35.4148 55.3742 35.1882 55.8287C34.9593 56.2827 34.6507 56.6632 34.2597 56.9695C33.8661 57.2758 33.4084 57.5081 32.8836 57.6664C32.3562 57.8244 31.7956 57.9039 31.1963 57.9039H29.046V61.3498H27.1631V50.6288ZM37.4722 50.6288H39.3549V59.6498H45.0344V61.3498H37.4722V50.6288ZM47.0251 50.6288H55.0193V52.3288H48.9078V55.0857H54.3246V56.7857H48.9078V59.6498H55.0965V61.3498H47.0251V50.6288ZM57.5811 50.6288H58.3373L62.6737 56.9695L67.0103 50.6288H67.7666V61.3498H66.9641V52.0378L62.6893 58.2101H62.6274L58.3526 52.0378V61.3498H57.5811V50.6288ZM70.9765 50.6288H78.662V51.3486H71.7789V55.5909H77.9676V56.3111H71.7789V60.63H78.7392V61.3498H70.9765V50.6288ZM84.9123 60.63C85.663 60.63 86.3424 60.5098 86.9492 60.2701C87.5564 60.0274 88.0707 59.7008 88.4927 59.2847C88.9142 58.8711 89.2411 58.3836 89.4726 57.8244C89.704 57.268 89.8196 56.6658 89.8196 56.02V55.9893C89.8196 55.3538 89.704 54.7539 89.4726 54.1923C89.2411 53.6283 88.9142 53.1356 88.4927 52.7169C88.0707 52.2959 87.5564 51.9638 86.9492 51.7163C86.3424 51.4714 85.663 51.3486 84.9123 51.3486H82.1187V60.63H84.9123ZM81.3162 50.6288H84.9123C85.7558 50.6288 86.5299 50.7642 87.2347 51.0349C87.9395 51.3053 88.5464 51.6808 89.0559 52.1605C89.565 52.6403 89.9586 53.2044 90.2363 53.8528C90.514 54.5012 90.653 55.2029 90.653 55.9586V55.9893C90.653 56.7447 90.514 57.4493 90.2363 58.1029C89.9586 58.7561 89.565 59.3228 89.0559 59.8029C88.5464 60.2827 87.9395 60.6607 87.2347 60.9363C86.5299 61.2118 85.7558 61.3498 84.9123 61.3498H81.3162V50.6288ZM93.4928 61.3495H94.2952V50.6288H93.4928V61.3495ZM104.928 57.628L102.089 51.4255L99.2335 57.628H104.928ZM101.718 50.5522H102.49L107.521 61.3498H106.641L105.268 58.3478H98.8943L97.5205 61.3498H96.6874L101.718 50.5522Z" fill="#4D4D4D"/>
<path fill-rule="evenodd" clip-rule="evenodd" d="M25.6345 28.0216C25.3011 27.0006 24.8446 26.0439 24.2159 25.1698C24.053 24.9433 23.8011 24.5644 23.7799 24.2771C23.7691 24.1276 23.8451 24.0103 23.9438 23.906C24.3948 23.5356 24.8348 23.1551 25.2588 22.7537C25.5149 22.5113 25.7649 22.2627 26.0112 22.0099L26.0464 22.0395C26.5802 22.473 27.0795 23.0433 27.4592 23.6155C27.6335 23.8778 28.0141 24.5033 28.0014 24.8269L27.9982 24.9137L28.0236 25.0118C28.3974 26.4654 29.8447 32.1231 31.0498 32.7873C31.4669 33.0174 32.0327 33.0476 32.4967 32.9836C32.9647 32.9186 33.491 32.7366 33.8368 32.4065C34.6997 31.5831 34.9044 29.7636 34.968 28.6367C34.9973 28.1145 35.0041 27.5904 34.996 27.0675C34.9728 25.5555 34.8454 23.8033 34.5498 22.316C33.8397 18.7428 34.3175 15.1567 36.1258 11.975C37.5917 9.39557 39.8139 7.30742 42.4266 5.90752C45.047 4.50372 48.0341 3.80702 51.0085 3.9799C54.315 4.1726 57.35 5.41977 59.8662 7.53554L59.5429 7.6262C56.4528 8.53704 53.6727 10.646 51.7284 13.1806L51.5648 13.3935L52.5259 14.1249L52.6891 13.9124C54.4786 11.5802 57.0394 9.62109 59.8841 8.78238C62.6163 7.97682 65.4108 8.30113 67.7123 10.052L67.7276 10.0633C69.1843 11.1714 69.7295 12.9811 69.9035 14.7261C70.074 16.4357 69.9016 18.1524 69.692 19.8503L69.663 20.07C69.1566 23.595 67.0318 26.8803 64.279 29.0946C60.9292 31.7894 56.7249 32.889 52.4675 32.3659L52.1165 32.3194L52.0817 32.3148L52.0351 32.3145C51.453 32.3116 50.9303 32.0975 50.4877 31.7264C49.9816 31.302 49.5942 30.6833 49.4048 30.0532L49.337 29.8283L48.1775 30.1728L48.2453 30.3986C48.5018 31.2506 49.0268 32.0744 49.7105 32.6479C50.358 33.1912 51.1301 33.5032 51.9793 33.5185L52.3205 33.564C56.8875 34.1252 61.4448 32.9235 65.0374 30.0337C68.0267 27.6293 70.3112 24.0656 70.8607 20.2406L70.8936 19.9968C71.1022 18.3081 71.2661 16.6333 71.1351 14.9341C73.2547 15.3195 75.2279 16.4133 76.7954 17.8703C78.5386 19.4909 79.8767 21.6509 80.3375 23.9983L80.3802 24.216L80.5568 24.3551L81.2223 24.8832C81.6851 25.2507 82.5076 25.9591 83.0473 26.1739L83.1916 26.2314L83.3412 26.2138C83.6283 26.1797 84.9863 26.2571 85.1486 26.4927C85.2454 26.9807 85.4657 27.5185 85.8512 27.8695C85.277 27.9277 84.3798 27.888 84.0882 27.8757L83.9901 27.8721C83.8887 27.811 83.7913 27.7437 83.6968 27.6729C83.395 27.4451 83.1255 27.1786 82.8589 26.9115C82.6741 26.7263 82.4131 26.4462 82.1833 26.3247C81.9278 26.1895 81.5495 25.9831 81.2673 25.9175L80.5715 25.7547L80.5262 26.467C80.4793 27.2053 80.434 27.9433 80.3668 28.6802C80.3 29.4117 80.214 30.4015 79.9859 31.0959C79.6665 32.0679 79.22 32.9803 78.6351 33.8207L78.5516 33.9403L78.5327 34.0852C78.2473 36.2543 77.9377 38.4178 77.6105 40.5807L77.5248 41.1565C77.4746 41.3963 76.5132 41.5516 76.319 41.5796C75.4052 41.7109 74.4187 41.7255 73.4961 41.7234C72.1815 41.7196 70.8877 41.6452 69.5776 41.5916C69.3769 41.3921 69.2749 41.0151 69.2231 40.7597C69.0624 39.9678 69.0963 38.9491 69.1201 38.1429L69.1432 37.3685L68.3855 37.5378C66.5052 37.9577 64.5863 38.1991 62.6584 38.2095C60.836 38.2196 59.0237 38.0213 57.2509 37.6012L56.5597 37.4371L56.5076 38.1452C56.4861 38.4428 56.4717 38.7427 56.457 39.0411L56.3847 40.5966C56.3244 40.8384 56.2306 41.1013 56.0829 41.3031C56.0292 41.3768 55.9392 41.4792 55.8473 41.5178L49.2207 41.5796H49.1875L49.1777 41.5806C48.9398 41.6001 48.6761 41.5923 48.4571 41.486C48.2124 41.3671 48.0478 41.1344 47.9305 40.8969C47.3524 39.7225 46.5885 38.4747 45.9048 37.3562C45.5815 36.8268 45.2504 36.3004 44.9056 35.784C44.5615 35.2687 43.4264 33.5159 42.6459 33.7742C42.4038 33.8548 42.0896 34.1141 41.8856 34.2701C40.993 34.9528 40.1209 35.5507 39.1074 36.0508C38.2725 36.4622 37.3623 36.7368 36.4468 36.898C34.5935 37.2246 32.5561 37.1134 30.7734 36.5048C29.1473 35.9494 27.6482 34.9437 26.8693 33.3745C26.6454 32.9225 26.4913 32.4426 26.4026 31.9463C26.2713 30.6257 26.0477 29.286 25.6345 28.0216ZM24.4261 21.8799C24.0139 22.2699 23.585 22.639 23.147 22.9997L23.1213 23.0209L23.1014 23.0407C22.7315 23.4095 22.5347 23.8371 22.5731 24.3636C22.6132 24.9098 22.9199 25.4375 23.2337 25.873C23.79 26.6441 24.1898 27.4935 24.4844 28.3949C24.8726 29.5836 25.075 30.86 25.2034 32.1007L25.2063 32.1296L25.2089 32.1462C25.3171 32.7587 25.5087 33.3508 25.7851 33.9084C26.7096 35.7714 28.4459 36.9851 30.3837 37.6464C32.3582 38.3206 34.6052 38.4483 36.6557 38.087C37.6852 37.9057 38.7049 37.5944 39.6428 37.1316C40.7293 36.5958 41.6633 35.9595 42.6201 35.2277C42.7003 35.1666 42.8092 35.076 42.9105 35.0012C43.0021 35.1228 43.1012 35.2765 43.1667 35.371C43.4143 35.7282 43.6568 36.0892 43.8983 36.4509C44.2287 36.9458 44.5465 37.4504 44.8574 37.9583C45.5271 39.0518 46.2799 40.2778 46.8459 41.4269C47.0878 41.9175 47.4309 42.3289 47.9305 42.5713C48.3512 42.7754 48.8036 42.8209 49.2653 42.7839L56.0086 42.7211L56.0634 42.7094C56.4753 42.6214 56.8155 42.3455 57.0593 42.0118C57.3154 41.6612 57.4781 41.2413 57.5752 40.8208L57.5869 40.7695L57.5895 40.71L57.6645 39.0989L57.6733 38.9306C59.3151 39.2662 60.9876 39.4232 62.6636 39.4141C64.4218 39.4047 66.1731 39.2123 67.897 38.8718C67.8892 39.5707 67.9036 40.3298 68.0388 40.9969C68.1916 41.7499 68.4507 42.3189 69.1178 42.7468L69.1716 42.7816L69.2358 42.7842C69.7135 42.8037 70.191 42.7566 70.6677 42.7767C72.347 42.8476 74.1531 42.9629 75.8279 42.8453C76.6911 42.7848 78.0602 42.6331 78.5513 41.8038C78.6338 41.6641 78.6879 41.5139 78.7169 41.3544L78.7182 41.3476L78.8075 40.7601C79.1288 38.6371 79.4302 36.5129 79.7121 34.3845C80.3215 33.4805 80.796 32.5059 81.1363 31.47C81.3562 30.7996 81.441 29.8673 81.5104 29.1618C81.5674 28.5802 81.6101 27.9978 81.6606 27.4159C82.0667 27.6527 82.5594 28.2169 82.915 28.5311C83.1274 28.7192 83.3536 28.897 83.6003 29.0387L83.6534 29.0692L83.7147 29.0702C84.4936 29.0816 85.3106 29.116 86.0865 29.0585C86.5183 29.0263 87.2454 28.9532 87.4575 28.5054C87.7186 27.9543 87.0257 27.2326 86.6793 26.882C86.517 26.7179 86.3942 26.4036 86.3159 26.1866C86.0908 25.2257 84.2518 24.9345 83.3784 24.9972C82.9449 24.7555 82.3515 24.2381 81.9754 23.9395L81.4794 23.5473C80.9316 21.0357 79.4948 18.7312 77.6196 16.9878C75.7917 15.2886 73.4675 14.0499 70.9809 13.6866C70.6681 11.9039 69.9342 10.2404 68.4628 9.10604L68.4475 9.09434C66.3758 7.49719 63.9183 6.90903 61.3522 7.24145C58.5137 4.58334 54.9762 3.00341 51.0763 2.7766C47.8803 2.5904 44.6703 3.33649 41.854 4.84525C39.0406 6.35238 36.6528 8.60333 35.0745 11.3804C33.1224 14.8148 32.6004 18.6902 33.3623 22.5487L33.3695 22.5851L33.3714 22.5887C33.6546 23.9912 33.769 25.678 33.7882 27.1006C33.7951 27.5903 33.7882 28.0814 33.7605 28.5701C33.7182 29.322 33.5764 30.9861 32.9996 31.5369C32.8464 31.6831 32.5345 31.7608 32.3309 31.7891C32.1373 31.8157 31.8101 31.8281 31.6335 31.7306C30.9302 31.3432 29.4855 25.8476 29.2095 24.775C29.1896 24.1679 28.7943 23.4413 28.4678 22.95C28.0229 22.2796 27.4347 21.6125 26.809 21.1046C26.7474 21.0546 26.6917 20.9483 26.6539 20.8801L26.5894 20.7654L26.1784 20.0823L25.6306 20.662C25.2382 21.077 24.841 21.4874 24.4261 21.8799Z" fill="#4D4D4D"/>
<path fill-rule="evenodd" clip-rule="evenodd" d="M41.2932 26.6617C41.4873 26.6617 41.6709 26.7374 41.8081 26.874C41.9452 27.0106 42.0208 27.1935 42.0208 27.3865C42.0208 27.5796 41.9449 27.7625 41.8081 27.8988C41.6709 28.0354 41.4873 28.1114 41.2932 28.1114C41.0994 28.1114 40.9161 28.0354 40.7789 27.8988C40.6418 27.7625 40.5655 27.5799 40.5655 27.3865C40.5655 27.1935 40.6418 27.0106 40.7789 26.874C40.9161 26.7374 41.0994 26.6617 41.2932 26.6617ZM39.8997 25.9982C39.5288 26.3673 39.3223 26.8642 39.3223 27.3865C39.3223 27.9089 39.5291 28.4055 39.8997 28.7746C40.2706 29.1437 40.7691 29.3497 41.2932 29.3497C41.8176 29.3497 42.3164 29.1437 42.687 28.7746C43.0575 28.4055 43.2644 27.9089 43.2644 27.3865C43.2644 26.8642 43.0578 26.3673 42.687 25.9982C42.3164 25.6291 41.8176 25.4233 41.2932 25.4233C40.7691 25.4233 40.2706 25.6291 39.8997 25.9982Z" fill="#4D4D4D"/>
<path fill-rule="evenodd" clip-rule="evenodd" d="M23.0948 12.1669C23.7141 11.5106 24.3594 10.6131 24.57 9.73567C24.6362 9.46044 24.6629 9.16774 24.6108 8.88797C24.5566 8.59559 24.4209 8.33653 24.1937 8.13503C24.0002 7.96361 23.7625 7.85753 23.5089 7.80061C23.2134 7.73398 22.9063 7.73398 22.6212 7.84201C22.3869 7.93062 22.1938 8.08069 22.046 8.27734C21.902 8.46881 21.8104 8.69327 21.7553 8.92258C21.526 9.87734 21.8733 11.1229 22.2319 12.0113L22.5343 12.761L23.0948 12.1669ZM23.5627 9.51025C23.4577 9.94881 23.194 10.4084 22.9056 10.8046C22.7549 10.2661 22.6466 9.63024 22.7623 9.14801C22.7853 9.05259 22.8224 8.94651 22.8822 8.86662C22.912 8.82717 22.9494 8.79256 22.9972 8.77445C23.0804 8.74307 23.1914 8.75601 23.2759 8.77509C23.3531 8.79256 23.438 8.82264 23.4975 8.87471C23.553 8.92355 23.5801 8.9947 23.5931 9.06489C23.6192 9.20687 23.5964 9.37085 23.5627 9.51025Z" fill="#4D4D4D"/>
<path fill-rule="evenodd" clip-rule="evenodd" d="M23.9486 16.464C23.964 17.1283 24.0951 17.8186 24.2515 18.4636L24.4163 19.1414L24.9981 18.7445C25.6095 18.3269 26.2949 17.451 26.6158 16.7847C26.7569 16.4913 26.8685 16.1686 26.897 15.844C26.9274 15.4941 26.8592 15.154 26.6536 14.8633C26.4955 14.6402 26.2775 14.4762 26.0287 14.3609C25.7008 14.2085 25.3253 14.1904 24.9857 14.3192C24.647 14.4473 24.3919 14.7003 24.2231 15.0124C23.9898 15.4455 23.9376 15.9813 23.9486 16.464ZM25.7409 16.3786C25.5681 16.7377 25.306 17.1116 25.0211 17.4303C24.964 17.1024 24.9232 16.7686 24.9155 16.4413C24.9085 16.1364 24.9292 15.733 25.0776 15.4576C25.1338 15.3535 25.218 15.2493 25.3334 15.2056C25.4256 15.1708 25.5273 15.1793 25.6155 15.2207C25.7071 15.2631 25.8001 15.3226 25.8589 15.4054C25.9318 15.5089 25.9428 15.6423 25.9325 15.7638C25.9144 15.9721 25.8312 16.191 25.7409 16.3786Z" fill="#4D4D4D"/>
<path fill-rule="evenodd" clip-rule="evenodd" d="M27.0949 13.698C27.6066 13.4383 28.1081 13.1436 28.5729 12.8046C28.956 12.5258 29.3347 12.2024 29.6365 11.8344C29.9999 11.3912 30.2503 10.8302 30.124 10.247C30.0654 9.9774 29.9322 9.73616 29.7413 9.53948C29.5626 9.35533 29.3396 9.21771 29.0993 9.13224C28.5952 8.95304 28.021 9.00815 27.5797 9.32167C27.0874 9.67181 26.8137 10.2876 26.6595 10.8559C26.4506 11.6265 26.4012 12.4875 26.414 13.2828L26.4258 14.0369L27.0949 13.698ZM28.0233 12.0373C27.8118 12.1915 27.5915 12.3347 27.3666 12.4693C27.3905 12.0103 27.4478 11.5403 27.5656 11.106C27.6563 10.7721 27.8279 10.3051 28.1215 10.0962C28.3137 9.95958 28.57 9.94902 28.787 10.0262C28.8918 10.0635 28.9916 10.1229 29.0695 10.2028C29.1357 10.2714 29.1848 10.3539 29.2051 10.4477C29.2647 10.7242 29.0771 11.0285 28.9111 11.2305C28.661 11.5357 28.3405 11.806 28.0233 12.0373Z" fill="#4D4D4D"/>
<path fill-rule="evenodd" clip-rule="evenodd" d="M26.2031 9.08451C26.7541 8.82983 27.2737 8.48802 27.7191 8.08054C28.1186 7.71503 28.4981 7.25725 28.7156 6.76263C28.8405 6.47817 28.9022 6.16423 28.8638 5.85477C28.8363 5.63501 28.7579 5.42486 28.6257 5.24419C28.4896 5.05839 28.3066 4.91647 28.0914 4.82646C27.8283 4.71626 27.5394 4.69223 27.257 4.72619C27.2002 4.73291 27.1435 4.74253 27.0877 4.75598C26.394 4.92224 25.9522 5.54916 25.7131 6.16647C25.4572 6.82798 25.3716 7.61348 25.4589 8.31568C25.4782 8.47137 25.5061 8.62641 25.5445 8.77858L25.6819 9.32541L26.2031 9.08451ZM26.3707 7.94439C26.3471 7.45651 26.4219 6.93562 26.5937 6.49066C26.7125 6.18441 26.9545 5.73528 27.3121 5.64943C27.3314 5.64494 27.3517 5.64078 27.3714 5.63854C27.4852 5.62508 27.6141 5.62732 27.7211 5.67217C27.7768 5.69524 27.8247 5.73016 27.8602 5.77853C27.9002 5.83331 27.9212 5.90058 27.9297 5.96689C27.9477 6.11201 27.9077 6.26802 27.8493 6.40096C27.6843 6.77673 27.378 7.13296 27.0749 7.41006C26.8588 7.60835 26.6216 7.78742 26.3707 7.94439Z" fill="#4D4D4D"/>
<path fill-rule="evenodd" clip-rule="evenodd" d="M22.5499 17.9113C22.804 17.0953 22.9753 16.06 22.7753 15.2181C22.7124 14.9541 22.6077 14.6909 22.4398 14.471C22.2643 14.2405 22.0322 14.072 21.7452 13.9903C21.5011 13.9208 21.2469 13.9255 21.0001 13.9788C20.7125 14.0411 20.444 14.1652 20.242 14.3736C20.0758 14.5447 19.9728 14.7521 19.9296 14.9816C19.8875 15.2047 19.9055 15.4354 19.958 15.6556C20.1754 16.5712 21.0245 17.505 21.7272 18.1261L22.3198 18.6501L22.5499 17.9113ZM21.7957 15.4313C21.8961 15.8522 21.8666 16.3545 21.788 16.8131C21.4205 16.4098 21.0473 15.9052 20.9373 15.4428C20.9155 15.3512 20.9015 15.2446 20.9189 15.1514C20.9279 15.1054 20.9453 15.0604 20.9791 15.0256C21.0383 14.9647 21.1409 14.9312 21.2232 14.9133C21.2981 14.8973 21.3854 14.8887 21.4603 14.9098C21.5305 14.9296 21.585 14.9797 21.6272 15.0349C21.7125 15.1469 21.764 15.2975 21.7957 15.4313Z" fill="#4D4D4D"/>
</svg>

