<svg width="87" height="74" viewBox="0 0 87 74" fill="none" xmlns="http://www.w3.org/2000/svg">
<path d="M34.1985 21.2457L43.6709 11.6606L53.1472 21.2535L58.6558 15.6732L43.6709 0.5L28.686 15.6693L34.1985 21.2457Z" fill="#4D4D4D"/>
<path d="M19.2817 25.187L24.7922 19.6088L30.3026 25.187L24.7922 30.7653L19.2817 25.187Z" fill="#4D4D4D"/>
<path d="M34.1984 29.1269L43.6708 38.716L53.1471 29.123L58.6595 34.6955L58.6557 34.6994L43.6708 49.8727L28.6859 34.7072L28.6782 34.6994L34.1984 29.1269Z" fill="#4D4D4D"/>
<path d="M57.0317 25.1885L62.5422 19.6102L68.0526 25.1885L62.5422 30.7667L57.0317 25.1885Z" fill="#4D4D4D"/>
<path d="M49.2614 25.1843L43.6719 19.5221L39.5385 23.7063L39.0609 24.186L38.0824 25.1765L38.0747 25.1843L38.0824 25.196L43.6719 30.8503L49.2614 25.1882L49.2652 25.1843H49.2614Z" fill="#4D4D4D"/>
<path d="M0.666504 61.2141H6.19461C7.56597 61.2141 8.60338 61.5738 9.30683 62.2931C9.57185 62.5588 9.78079 62.8762 9.92095 63.2261C10.0611 63.5761 10.1296 63.9512 10.1222 64.3287V64.3628C10.127 64.6721 10.0844 64.9803 9.99606 65.2764C9.91736 65.5312 9.80311 65.7735 9.65677 65.9957C9.52035 66.2052 9.35528 66.3941 9.16649 66.5567C8.98204 66.7174 8.77999 66.8562 8.5643 66.9703C9.1863 67.1896 9.74564 67.5601 10.1932 68.0492C10.5888 68.5048 10.7866 69.1342 10.7866 69.9374V69.9716C10.7978 70.4732 10.69 70.9703 10.4721 71.421C10.2611 71.8362 9.95163 72.1921 9.57151 72.4568C9.14176 72.7484 8.66325 72.9586 8.15928 73.0771C7.56053 73.2209 6.94672 73.2903 6.33139 73.2839H0.666504V61.2141ZM5.64037 66.0946C6.11865 66.118 6.59461 66.0138 7.02062 65.7924C7.18676 65.6942 7.3224 65.5509 7.41219 65.3786C7.50198 65.2063 7.54233 65.0121 7.52867 64.8178V64.7836C7.53746 64.6046 7.50155 64.4263 7.42424 64.265C7.34693 64.1038 7.23072 63.9649 7.08635 63.8611C6.79147 63.6489 6.36573 63.5428 5.80913 63.5428H3.22272V66.0946H5.64037ZM6.33849 70.9588C6.81499 70.9858 7.28929 70.8755 7.70631 70.6405C7.86876 70.5349 8.00026 70.387 8.08711 70.2125C8.17397 70.0379 8.213 69.8429 8.20014 69.6479V69.6137C8.20654 69.4283 8.16795 69.2442 8.08774 69.0774C8.00753 68.9106 7.88815 68.7663 7.74006 68.6571C7.43452 68.4173 6.94069 68.2974 6.25856 68.2974H3.22272V70.9588H6.33849Z" fill="#4D4D4D"/>
<path d="M14.0806 61.2144H16.7043V73.2878H14.0806V61.2144Z" fill="#4D4D4D"/>
<path d="M20.6743 61.2144H23.0937L28.6858 68.6447V61.2144H31.2758V73.2878H29.0428L23.2678 65.6129V73.2878H20.6743V61.2144Z" fill="#4D4D4D"/>
<path d="M39.2184 61.1279H41.6343L46.7449 73.2877H44.0057L42.915 70.5795H37.8719L36.7812 73.2877H34.106L39.2184 61.1279ZM41.9789 68.2346L40.3908 64.318L38.8098 68.2346H41.9789Z" fill="#4D4D4D"/>
<path d="M49.5825 61.2141H52.002L57.5905 68.6445V61.2141H60.1804V73.2875H57.9475L52.1725 65.6126V73.2875H49.5825V61.2141Z" fill="#4D4D4D"/>
<path d="M69.6244 73.4997C68.7883 73.507 67.9593 73.3431 67.1872 73.0178C66.4604 72.714 65.801 72.266 65.2479 71.7002C64.6948 71.1344 64.2592 70.4623 63.9667 69.7234C63.658 68.9506 63.5017 68.124 63.5066 67.2904V67.2562C63.4928 65.613 64.1174 64.0302 65.2456 62.8487C65.8008 62.2716 66.4654 61.8141 67.1997 61.5036C67.9983 61.1687 68.8559 61.0017 69.7204 61.0127C70.2316 61.0089 70.7421 61.0552 71.2445 61.1512C71.6744 61.2335 72.0946 61.3606 72.4986 61.5306C72.8652 61.6868 73.2137 61.8834 73.5378 62.1168C73.8541 62.3445 74.1512 62.5983 74.426 62.8757L72.758 64.825C72.3317 64.4269 71.8536 64.0899 71.3369 63.8234C70.8293 63.5777 70.2723 63.4546 69.7097 63.4637C69.2415 63.4587 68.7776 63.5545 68.3489 63.7449C67.9201 63.9352 67.5362 64.2158 67.2228 64.5679C66.912 64.919 66.6686 65.3258 66.5051 65.7673C66.334 66.2338 66.2479 66.728 66.2511 67.2257V67.2598C66.2494 67.7568 66.3354 68.2501 66.5051 68.7164C66.6665 69.1595 66.9074 69.5686 67.2157 69.923C67.5266 70.2795 67.9096 70.5641 68.3386 70.7577C68.7677 70.9513 69.2329 71.0493 69.7026 71.0451C70.3008 71.0642 70.8944 70.9339 71.431 70.6657C71.9419 70.3838 72.4143 70.0356 72.8361 69.6299L74.5059 71.3383C74.2111 71.6622 73.8922 71.9628 73.552 72.2374C73.2178 72.5049 72.8549 72.7335 72.4702 72.9189C72.0602 73.1143 71.6284 73.2586 71.1841 73.3487C70.6707 73.4529 70.1481 73.5035 69.6244 73.4997Z" fill="#4D4D4D"/>
<path d="M77.6021 61.2144H86.5781V63.5773H80.1831V66.0265H85.8143V68.3894H80.192V70.9249H86.6669V73.2878H77.6074L77.6021 61.2144Z" fill="#4D4D4D"/>
</svg>
