<svg width="92" height="74" viewBox="0 0 92 74" fill="none" xmlns="http://www.w3.org/2000/svg">
<path d="M50.8557 15.0717C50.8557 8.05216 47.4694 2.00132 44.8869 0.0241835C44.8869 0.0241835 44.6892 -0.095241 44.7156 0.196685C44.4784 13.8243 37.6136 17.4469 33.8321 22.3964C28.0741 29.5353 29.1545 40.0048 36.2301 45.7903C37.7849 47.0642 39.5637 48.0461 41.4743 48.6698C46.0991 49.9702 40.3938 46.3874 39.6691 38.8106C38.7863 29.6016 50.8557 22.6618 50.8557 15.0717Z" fill="#4D4D4D"/>
<path d="M55.389 19.7425C55.3495 19.6895 55.2836 19.6762 55.2309 19.7027C55.2177 19.716 55.2046 19.7293 55.1914 19.7425C54.3217 22.9006 52.846 25.873 50.8432 28.4605C42.898 39.8324 47.4438 45.3126 49.9868 48.1788C51.4493 49.8906 49.9868 48.1788 53.6893 46.4273C58.1428 43.9194 61.1075 39.3945 61.6345 34.2858C62.043 28.6994 59.7108 23.2722 55.389 19.7425Z" fill="#4D4D4D"/>
<path d="M39.1646 64.7327C39.8091 64.7327 40.3316 64.2065 40.3316 63.5574C40.3316 62.9083 39.8091 62.3821 39.1646 62.3821C38.5201 62.3821 37.9976 62.9083 37.9976 63.5574C37.9976 64.2065 38.5201 64.7327 39.1646 64.7327Z" fill="#4D4D4D"/>
<path d="M6.916 62.395V66.9356H2.44094V62.9869C2.44094 62.6614 2.17647 62.395 1.85322 62.395H0.333546V73.2475C0.329348 73.573 0.589623 73.8394 0.912869 73.8436H0.959047H2.47033V68.7746H6.94119V73.2517C6.94119 73.5773 7.20567 73.8436 7.52891 73.8436H9.04019V62.9869C9.04019 62.6614 8.77572 62.395 8.45247 62.395H8.44827H6.916ZM15.7906 65.2318V70.6728C15.7948 71.1675 15.5387 71.6283 15.1189 71.8862C14.3926 72.3597 13.4229 72.1483 12.9569 71.4169C12.7974 71.1675 12.7092 70.8758 12.7092 70.5798V65.8237C12.7092 65.4981 12.4448 65.2318 12.1215 65.2318H10.6102V70.7658C10.6186 72.5499 12.0502 73.9916 13.8217 74H14.6781C16.4497 73.9916 17.8812 72.5499 17.8896 70.7658V65.8237C17.8896 65.4981 17.6251 65.2318 17.3018 65.2318H15.7906Z" fill="#4D4D4D"/>
<path d="M38.7 73.8436H40.2113V66.1366C40.2113 65.811 39.9468 65.5447 39.6235 65.5447H38.1207V73.2433C38.1165 73.5731 38.3767 73.8394 38.7 73.8436Z" fill="#4D4D4D"/>
<path d="M23.3082 65.2278C21.2008 65.1305 19.4167 66.7709 19.3201 68.8889C19.3201 68.9228 19.3159 68.9608 19.3159 68.9946V70.1868C19.3495 72.3049 21.0875 73.996 23.1907 73.9579C23.2284 73.9579 23.2704 73.9579 23.3082 73.9537C25.4114 74.0552 27.1956 72.4191 27.2963 70.3052C27.2963 70.2672 27.3005 70.2249 27.3005 70.1868V68.9946C27.2627 66.8723 25.5206 65.1855 23.4132 65.2235C23.3754 65.2235 23.3418 65.2278 23.3082 65.2278ZM25.1763 70.3602C25.1763 71.4129 24.3283 72.2626 23.2872 72.2626C22.2461 72.2626 21.3981 71.4086 21.3981 70.3602V68.872C21.3981 67.8193 22.2461 66.9696 23.2872 66.9696C24.3283 66.9696 25.1763 67.8236 25.1763 68.872V70.3602Z" fill="#4D4D4D"/>
<path d="M32.7125 65.2276C32.066 65.2276 31.4237 65.3756 30.8402 65.663V62.9996C30.8402 62.6741 30.5757 62.4077 30.2525 62.4077H28.7202V70.2205C28.7538 72.3386 30.4918 74.0296 32.595 73.9916C32.6327 73.9916 32.6747 73.9916 32.7125 73.9874C34.8157 74.0888 36.5999 72.4527 36.7006 70.3389C36.7006 70.3008 36.7048 70.2585 36.7048 70.2205V69.0283C36.6838 66.906 34.9584 65.2022 32.8468 65.2234C32.8007 65.2234 32.7587 65.2234 32.7125 65.2276ZM34.5848 70.36C34.5848 71.4127 33.7368 72.2625 32.6957 72.2625C31.6504 72.2625 30.8066 71.4085 30.8066 70.36V68.8719C30.8066 67.8192 31.6546 66.9694 32.6957 66.9694C33.741 66.9694 34.5848 67.8234 34.5848 68.8719V70.36Z" fill="#4D4D4D"/>
<path d="M73.4377 65.1218C72.7912 65.1218 72.1489 65.2698 71.5654 65.5573V62.8939C71.5654 62.5683 71.3009 62.302 70.9777 62.302H69.4664V70.1147C69.5 72.2328 71.2379 73.9239 73.3411 73.8858C73.3789 73.8858 73.4209 73.8858 73.4587 73.8816C75.5619 73.9831 77.346 72.347 77.4468 70.2331C77.4468 70.1951 77.451 70.1528 77.451 70.1147V68.9225C77.43 66.8002 75.7046 65.0965 73.5972 65.1176C73.5468 65.1176 73.4923 65.1176 73.4377 65.1218ZM75.31 70.25C75.31 71.3027 74.462 72.1525 73.4209 72.1525C72.3756 72.1525 71.5318 71.2985 71.5318 70.25V68.7619C71.5318 67.7092 72.3798 66.8594 73.4209 66.8594C74.4662 66.8594 75.31 67.7134 75.31 68.7619V70.25ZM53.7617 66.9778H49.6644V68.1024C49.6644 68.449 49.9457 68.7323 50.2899 68.7323H52.2378V69.7258C52.2672 70.3177 52.0615 70.8969 51.6627 71.3323C50.6762 72.2666 49.1481 72.3131 48.107 71.438C47.5528 70.8926 47.4353 70.2965 47.4353 68.0897C47.4353 65.8828 47.5528 65.2994 48.107 64.754C48.6317 64.3059 49.2908 64.0565 49.9793 64.0438C52.2168 64.0438 52.9683 64.8428 53.5266 65.57H53.6022V63.9761C53.6022 63.7309 53.493 63.4984 53.3041 63.3462C52.3679 62.5937 51.4318 62.3147 49.824 62.3147C48.5939 62.2766 47.4017 62.7163 46.4866 63.5449C45.2397 64.661 45.2397 65.9336 45.2397 68.022V68.1869C45.2397 70.2796 45.2397 71.5479 46.4866 72.664C48.4386 74.3467 51.331 74.3128 53.2411 72.5837C54.0387 71.8101 54.362 70.3304 54.362 68.8168V67.5612C54.3368 67.2441 54.0807 66.9905 53.7617 66.9778ZM59.8152 73.8436V72.5119C59.8152 72.1948 59.5591 71.9411 59.2485 71.9411H58.1948C57.3342 71.9411 57.3762 71.5057 57.3762 70.3853V62.8473C57.3762 62.5303 57.1201 62.2766 56.8094 62.2766H55.2646V70.6474C55.2646 72.6683 55.7809 73.852 57.9471 73.852H59.8194L59.8152 73.8436ZM91.3127 73.8943V72.5584C91.3253 72.2413 91.0861 71.9749 90.7712 71.9623C90.767 71.9623 90.767 71.9623 90.7628 71.9623H89.7091C88.8485 71.9623 88.8905 71.5268 88.8905 70.4065V62.915C88.8905 62.5979 88.6344 62.3443 88.3238 62.3443H86.7789V70.7024C86.7789 72.7232 87.2953 73.907 89.4614 73.907H91.3337L91.3127 73.8943ZM64.5673 65.1092C62.4599 65.0119 60.6758 66.6523 60.5792 68.7703C60.5792 68.8042 60.575 68.8422 60.575 68.876V70.0767C60.6086 72.1948 62.3466 73.8858 64.4498 73.8478C64.4876 73.8478 64.5295 73.8478 64.5673 73.8436C66.6705 73.945 68.4547 72.3089 68.5554 70.1951C68.5554 70.157 68.5596 70.1147 68.5596 70.0767V68.8845C68.526 66.7622 66.7881 65.0711 64.6807 65.1049C64.6429 65.1049 64.6051 65.1049 64.5673 65.1092ZM66.4396 70.2374C66.4396 71.29 65.5916 72.1398 64.5505 72.1398C63.5052 72.1398 62.6614 71.2858 62.6614 70.2374V68.7407C62.6614 67.6881 63.5094 66.8383 64.5505 66.8383C65.5958 66.8383 66.4396 67.6923 66.4396 68.7407V70.2374ZM84.7387 65.8786C83.9453 65.329 82.9923 65.0584 82.031 65.1176C81.5734 65.1176 81.1116 65.1514 80.6582 65.2106C80.2762 65.2614 79.7431 65.3375 79.3737 65.4178C79.2225 65.4558 79.1931 65.5742 79.1931 65.7137V66.851C79.1931 67.0539 79.1931 67.2399 79.4114 67.185C79.8102 67.0835 80.5827 66.9144 80.7884 66.8763C81.1452 66.8214 81.502 66.7918 81.8631 66.796C82.329 66.7622 82.7992 66.8721 83.2022 67.1089C83.5213 67.3837 83.6808 67.8064 83.6262 68.225V68.2884H82.3668C81.8799 68.2884 81.3929 68.3433 80.9185 68.4575C80.4777 68.5632 80.0537 68.745 79.6717 68.9902C79.3149 69.2227 79.0168 69.5313 78.7985 69.8991C78.5802 70.2796 78.4711 70.7151 78.4753 71.1548C78.4627 71.5902 78.5592 72.0214 78.7481 72.4104C78.9329 72.7571 79.2057 73.053 79.5332 73.2728C79.9152 73.5138 80.3392 73.6787 80.78 73.7548C81.2921 73.8563 81.8127 73.9028 82.3332 73.8985C82.7446 73.8985 85.7336 73.8563 85.7336 72.4273V68.2926C85.8008 67.3837 85.4314 66.4874 84.7387 65.8786ZM83.601 69.9372V72.1398C83.4373 72.1694 83.2568 72.1948 83.0637 72.2159C82.5935 72.2624 82.1233 72.2624 81.6532 72.2159C81.4685 72.199 81.2837 72.1483 81.1158 72.0637C80.9605 71.9834 80.8262 71.8692 80.7296 71.7255C80.6163 71.5353 80.5659 71.3154 80.5785 71.0956C80.5533 70.7278 80.7254 70.3726 81.0319 70.1739C81.4852 69.9287 81.9974 69.8188 82.5096 69.8526H83.1351L83.601 69.9372Z" fill="#4D4D4D"/>
</svg>
