<svg width="155" height="70" viewBox="0 0 155 70" fill="none" xmlns="http://www.w3.org/2000/svg">
<path d="M80.232 9.32265C80.1306 9.40496 80.0232 9.47965 79.9107 9.54611C79.6541 9.5723 79.4481 9.33138 79.188 9.40645C78.9959 9.44137 78.865 9.60023 78.7009 9.69101C78.3343 9.4885 77.9188 9.70673 77.6534 9.97384C77.4334 10.0541 77.3252 9.85163 77.1576 9.78005C77.0284 10.1886 77.3234 10.6966 77.7721 10.7123C77.9615 10.7417 78.1553 10.7112 78.3265 10.6252C78.4977 10.5391 78.6377 10.4017 78.7271 10.2322C78.748 10.1606 78.7812 10.0699 78.8598 10.0576C79.1216 10.2462 79.4289 10.4208 79.7658 10.3073C80.1709 10.2182 80.3926 9.75561 80.3297 9.36804C80.3267 9.3584 80.3216 9.3495 80.3149 9.34191C80.3082 9.33432 80.3 9.3282 80.2908 9.32393C80.2816 9.31967 80.2716 9.31735 80.2615 9.31713C80.2514 9.31691 80.2413 9.31879 80.232 9.32265ZM76.0228 9.36455C76.1276 9.53913 76.1101 9.7818 76.1782 9.97733C76.4139 10.742 76.763 11.5067 77.3584 12.0618C77.8159 12.516 78.398 12.8241 79.0309 12.947C79.6702 13.0718 80.3317 13.0174 80.942 12.7897C81.5524 12.562 82.0879 12.1699 82.4893 11.6568C82.7809 11.264 83.0515 10.8118 83.0951 10.3195L83.0253 10.3282C82.8603 10.5504 82.6604 10.7443 82.4334 10.9026C81.5745 11.5102 80.2425 11.3146 79.6314 10.447C79.4148 10.4498 79.2013 10.3963 79.0117 10.2916C78.962 10.2485 78.9017 10.2196 78.8371 10.2078C78.8296 10.2667 78.8102 10.3235 78.7802 10.3748C78.7502 10.4261 78.7102 10.4709 78.6625 10.5063C78.6439 10.5141 78.6279 10.5268 78.6159 10.543C78.604 10.5592 78.5966 10.5783 78.5947 10.5984C78.5927 10.6184 78.5962 10.6386 78.6047 10.6568C78.6133 10.675 78.6266 10.6906 78.6433 10.7018C78.8748 10.9719 79.1634 11.1872 79.4883 11.3321C80.5602 11.8558 81.894 11.5643 82.7913 10.8241C82.3915 11.9292 81.2847 12.6764 80.1464 12.8405C79.4603 12.8859 78.7323 12.8178 78.1318 12.4546C77.581 12.1409 77.1283 11.6804 76.8242 11.1243C76.5079 10.5817 76.3048 9.98075 76.2271 9.35756C76.77 9.31217 77.3095 9.25107 77.8524 9.1987C77.8821 9.32789 77.9118 9.45533 77.9397 9.58452C78.1915 9.53828 78.4492 9.53297 78.7026 9.56881C78.8336 9.40645 79.0518 9.37851 79.2107 9.26678C79.2194 9.16902 79.2212 9.07125 79.2212 8.97174C80.5043 8.72383 81.8032 8.41483 82.9467 7.76364C83.6084 7.3848 84.2631 6.74932 84.2229 5.92879L84.2055 5.95148C84.0204 6.23605 83.7096 6.38444 83.4128 6.52236C81.667 7.22069 79.7868 7.54192 77.9327 7.82998C76.2079 8.09502 74.4618 8.19499 72.718 8.12851C72.2501 8.05344 71.6932 8.07614 71.3336 7.7165C71.3765 8.00139 71.5085 8.26538 71.7107 8.47069C72.0982 8.89667 72.6674 9.07998 73.2103 9.2179C74.1365 9.39722 75.0831 9.44657 76.0228 9.36455ZM71.9533 8.42879C72.1785 8.39562 72.3776 8.23501 72.601 8.23501C72.8891 8.448 73.1335 8.7186 73.4355 8.91413C73.7742 8.78145 74.0291 8.48815 74.3625 8.3415C74.4133 8.34361 74.4618 8.36266 74.5005 8.39562C74.7292 8.5702 74.9544 8.74479 75.1883 8.91937H75.3629C75.5654 8.74479 75.7836 8.58941 75.9896 8.41832C76.0251 8.38242 76.0697 8.35681 76.1186 8.3442C76.1674 8.3316 76.2188 8.33248 76.2672 8.34674C76.5483 8.50037 76.791 8.72383 77.0843 8.85303C77.4509 8.72558 77.608 8.28389 77.9781 8.1547C78.2802 8.26119 78.5543 8.43054 78.851 8.56497C78.8958 8.58327 78.9451 8.58706 78.9921 8.57578C79.0391 8.5645 79.0814 8.53873 79.1129 8.50212C79.2456 8.31531 79.4411 8.18263 79.5756 7.99583C79.6384 7.89632 79.7676 7.75665 79.9003 7.82125C80.2337 7.91727 80.5392 8.12328 80.8884 8.14423C81.1415 7.90156 81.3214 7.59255 81.564 7.33766C81.8329 7.29052 82.0633 7.4686 82.3217 7.51224C82.4614 7.53843 82.6464 7.67111 82.7704 7.54366C82.9764 7.26783 83.1196 6.94834 83.35 6.68647C83.5246 6.68647 83.7096 6.67425 83.8895 6.68647C83.7661 6.94847 83.5735 7.17182 83.3325 7.33242C82.6133 7.89283 81.7334 8.19136 80.8709 8.44625C80.0045 8.69181 79.121 8.87271 78.2278 8.98745C77.7983 9.0503 77.3549 9.06776 76.9324 9.16203C76.4959 9.10791 76.0595 9.28598 75.6161 9.21092C75.2267 9.23361 74.8427 9.21092 74.4533 9.23885C73.6572 9.13585 72.8088 9.08871 72.1227 8.62432C72.0651 8.55624 71.9306 8.52656 71.9533 8.42879ZM80.9966 14.3646C80.6846 14.238 80.3588 14.1484 80.026 14.0975C79.2337 13.9888 78.433 13.9531 77.6342 13.991C77.11 14.0188 76.5881 14.08 76.0717 14.1743C75.7679 14.2389 75.431 14.3209 75.2197 14.5636C75.2197 14.6701 75.3053 14.7521 75.3804 14.8167C75.9792 15.11 76.6583 15.1397 77.3008 15.2148C78.1737 15.2148 79.0588 15.2602 79.9282 15.117C80.3716 15.0384 80.8902 15.0105 81.2184 14.6648C81.2585 14.513 81.1119 14.4204 80.9932 14.3628L80.9966 14.3646ZM71.5326 7.67635C71.6834 7.77193 71.8511 7.83771 72.0267 7.87013C72.0179 7.76189 72.0162 7.59953 72.1436 7.56985C72.3196 7.64622 72.4895 7.73611 72.6517 7.83871C72.732 7.88061 72.8175 7.9452 72.9135 7.90854C73.1579 7.69206 73.1824 7.32893 73.3517 7.06182C73.5822 7.01817 73.7009 7.24862 73.8929 7.33417C74.0186 7.38479 74.1234 7.55414 74.2718 7.52097C74.5162 7.31147 74.5843 6.97627 74.7519 6.71266C75.101 6.70044 75.2896 7.10372 75.6021 7.2172C75.8901 7.12816 75.8971 6.76678 76.1031 6.5887C76.0682 6.87153 76.0577 7.15784 76.035 7.44241C76.0464 7.46056 76.063 7.4748 76.0826 7.48323C76.1023 7.49165 76.1241 7.49386 76.145 7.48954C76.6202 7.50853 77.0961 7.4881 77.5679 7.42844C78.1789 7.34813 78.8126 7.27132 79.3643 6.97628C79.3905 6.87851 79.3294 6.80169 79.2962 6.70917C79.2018 6.4948 79.1219 6.27433 79.057 6.04925C79.3486 6.15225 79.4324 6.52585 79.7205 6.63584C80.0539 6.58521 80.0696 6.1121 80.3262 5.96021C80.348 5.94732 80.3722 5.93928 80.3973 5.93666C80.4224 5.93403 80.4478 5.93689 80.4717 5.94502C80.4956 5.95315 80.5174 5.96637 80.5357 5.98376C80.554 6.00115 80.5683 6.0223 80.5777 6.04576C80.6889 6.19191 80.8127 6.32802 80.9478 6.45253C81.0089 6.57125 81.1695 6.5276 81.2585 6.46824C81.3934 6.25686 81.5428 6.05503 81.7054 5.86419C81.7362 5.85756 81.7681 5.85838 81.7985 5.86658C81.8288 5.87478 81.8568 5.89012 81.88 5.91133C82.0181 6.1069 82.1692 6.29296 82.3322 6.46824C82.3537 6.48521 82.3783 6.49773 82.4046 6.50507C82.431 6.51242 82.4585 6.51445 82.4856 6.51104C82.5128 6.50762 82.539 6.49884 82.5627 6.4852C82.5864 6.47155 82.6072 6.45333 82.6237 6.43158C82.7599 6.28319 82.8769 6.11733 83.0288 5.98116C83.35 5.82927 83.2156 6.33032 83.4443 6.33032C83.6615 6.23727 83.8584 6.10265 84.0239 5.93402C84.1251 5.76992 83.9802 5.74722 83.8999 5.68612C83.5082 5.54365 83.0947 5.4704 82.6779 5.46964C81.8975 5.38409 81.1066 5.46964 80.3367 5.50106C79.8496 5.53074 79.3643 5.57439 78.8807 5.62502C78.6888 5.12577 78.4215 4.65888 78.0881 4.24058C77.9721 4.10878 77.8225 4.01104 77.6552 3.95783C77.4878 3.90462 77.3092 3.89796 77.1384 3.93856C77.0606 3.95398 76.9868 3.98549 76.9219 4.03109C76.4278 4.4204 76.3301 5.09604 76.1957 5.66866C76.1538 5.76992 76.2149 6.01782 76.0403 6.02655C74.9641 6.21601 73.902 6.47789 72.8612 6.81042C72.3898 6.985 71.8591 7.12292 71.5012 7.50875C71.4837 7.55763 71.4662 7.63968 71.5326 7.6746V7.67635ZM76.4488 5.23221C76.489 4.97208 76.5874 4.72439 76.7369 4.50769C76.7753 4.49547 76.8137 4.48674 76.8538 4.47627C76.9303 4.4916 77.002 4.52516 77.0628 4.57409C77.1236 4.62302 77.1717 4.68588 77.203 4.75735C77.4404 5.3806 77.4334 6.05972 77.5522 6.70917C78.0116 6.66339 78.4636 6.56137 78.8982 6.4054C79.0029 6.36 79.0448 6.46301 79.0483 6.5503C78.7882 6.68996 78.4792 6.71091 78.1999 6.79471C77.7004 6.89549 77.1923 6.94695 76.6827 6.94834C76.529 6.97774 76.3709 6.97476 76.2184 6.93961C76.2495 6.36493 76.3283 5.79383 76.454 5.23221H76.4488ZM76.2306 7.1526C76.4856 7.19363 76.7455 7.19363 77.0005 7.1526C77.7065 7.12574 78.4047 6.99516 79.0728 6.76503C79.1932 6.68298 79.2124 6.85581 79.1496 6.91517C78.6066 7.15086 78.0113 7.2172 77.4299 7.29401C77.017 7.33593 76.6016 7.34818 76.1869 7.33068C76.1869 7.26783 76.1625 7.18228 76.2306 7.14562V7.1526ZM69.5319 9.38899C69.6035 13.0185 72.1017 16.3722 75.6021 17.4093C80.7313 19.1271 86.6601 14.8342 86.5536 9.39423C109.143 9.34709 154.597 9.37153 154.597 9.37153V9.08696C154.597 9.08696 109.237 9.10442 86.5536 9.073C86.5414 4.1952 81.7229 0.0122213 76.8713 0.897349C72.8175 1.31634 69.6523 5.06112 69.5389 9.0695C47.0022 9.10966 1.90778 9.08696 1.90778 9.08696V9.36106C1.90778 9.36106 46.6931 9.33836 69.5319 9.38201V9.38899ZM71.2428 4.82718C72.4858 2.79854 74.7169 1.57473 77.0144 1.17843C81.7491 0.432965 86.4628 4.69101 86.1712 9.46581C86.1608 9.64039 86.152 9.81497 86.1451 9.98955C85.9425 15.4225 79.4202 19.1935 74.5965 16.6638C70.2581 14.7137 68.4949 8.77795 71.2428 4.82019V4.82718ZM130.461 23.1582V22.8213H120.237V23.888H120.573V23.1582H130.461ZM114.492 41.4613L114.239 41.6027C114.352 41.8018 117.006 46.4666 119.096 48.0273L119.27 47.7952C117.228 46.2623 114.513 41.4997 114.492 41.4613ZM96.3005 22.8091L94.2212 36.4735H93.5735V36.7965H94.5232V36.7476L96.592 23.1478H99.8584V22.8126L96.3005 22.8091ZM124.186 36.4735V24.7382H123.849V36.4735H123.163V36.7965H124.186V36.4735ZM103.839 38.2927V37.432H103.083L100.904 23.9281H97.313L95.1342 37.432H94.1828V38.2927H94.9946L93.1894 49.4659H94.3678L96.166 38.2927H99.3731L101 48.9875L101.334 48.9369L99.7153 38.2875H100.459L102.257 49.4607H105.028L103.223 38.2875L103.839 38.2927ZM96.3039 37.432L97.8141 28.0465L99.2421 37.432H96.3039ZM99.5843 37.432L97.9904 26.9571L98.3116 24.9599L100.319 37.4372L99.5843 37.432ZM130.913 48.7588C130.436 47.8109 130.454 47.8859 130.304 47.5839C128.533 48.5459 125.862 49.0993 124.137 47.8929C119.993 45.2952 119.089 39.9111 114.361 38.0867C119.49 37.2976 121.98 30.5238 118.57 26.5975C116.3 23.5109 112.111 23.7902 108.745 23.9788C108.72 26.2605 108.704 31.9152 108.703 37.4215H107.879V38.2822H108.706C108.706 43.3451 108.718 48.1234 108.745 49.8709C109.651 49.9442 110.56 49.8901 111.472 49.8709C111.529 46.1104 111.449 42.0427 111.501 38.2787C114.686 38.6279 115.517 42.7585 117.322 44.9128C120.026 49.3612 126.075 51.1419 130.913 48.7588ZM111.489 37.4268V36.8576V36.7808C111.632 36.7808 111.774 36.7913 111.912 36.7913C113.251 36.7913 114.303 36.4282 115.042 35.7106C116.487 34.3052 116.421 31.8402 116.386 30.5151L116.096 30.5238C116.131 31.8035 116.194 34.19 114.839 35.5029C114.083 36.2379 112.959 36.5696 111.496 36.491V36.6254C111.486 32.6956 111.466 28.7693 111.496 24.8377C113.341 24.7469 115.59 25.3946 116.342 27.2312C117.39 29.8045 117.451 32.8178 116.33 35.3737C115.489 37.1789 113.329 37.5612 111.489 37.4268ZM131.257 23.8758H121.295V24.7382H124.881L124.865 37.432H124.017V38.2927H124.865V44.3H127.659V38.2927H128.448V37.432H127.659V24.7382H131.246L131.257 23.8758ZM129.398 47.3517L129.253 47.1003C126.52 48.6803 124.565 47.1003 124.483 47.034L124.298 47.2574C124.731 47.5823 125.225 47.8162 125.751 47.9453C126.106 48.0372 126.471 48.0835 126.838 48.0832C127.741 48.0714 128.625 47.8188 129.398 47.3517ZM124.186 39.1359H123.849V43.6349H124.186V39.1359ZM133.32 39.1359H132.985V48.8182H133.32V39.1359ZM144.941 38.9317H144.605V48.6087H144.941V38.9317ZM108.043 39.1359H107.704V48.5825H108.041L108.043 39.1359ZM154.584 49.4519V48.579H148.535V47.947H153.93V47.6101H148.535V38.2927H149.281V37.432H148.539V23.8758H145.763L145.751 37.432H144.855V38.2927H145.742V49.4519H154.584ZM107.704 36.8018H108.041V23.146H113.139V22.8091H107.704V23.146V36.4735H107.055V36.7965H107.704V36.8018ZM108.041 62.8476V63.1863H154.667V62.8476H108.041ZM141.407 22.8091H133.32V23.146H141.407V22.8091ZM132.985 22.8091V36.4561H132.348V36.793H133.32V22.8091H132.985ZM142.847 49.4519V48.579H136.796V47.947H142.29V47.6101H136.798V38.2927H141.861V37.432H136.798V36.793H140.95V36.4561H136.802V24.7382H142.271V23.8758H134.017L134.005 37.432H133.153V38.2927H134.005L133.994 49.4519H142.847ZM144.942 36.793V23.146H147.666V22.8091H144.605V36.4561H143.986V36.793H144.942ZM54.8915 22.8091L52.814 36.4735H52.1645V36.7965H53.1142V36.7476L55.183 23.1478H58.4512V22.8126H54.8897L54.8915 22.8091ZM28.7392 39.1359H28.404V48.8182H28.7392V39.1359ZM52.587 38.9858L52.2518 38.9351L50.7906 48.579L51.1258 48.6314L52.587 38.9858ZM79.3276 22.7811C81.0903 22.7781 82.838 23.1037 84.4813 23.7413L84.586 23.4707C82.4261 22.6347 80.0979 22.3261 77.7947 22.5707C75.4916 22.8153 73.2801 23.6061 71.344 24.8772C69.4079 26.1483 67.8031 27.8631 66.6629 29.8791C65.5227 31.8951 64.8801 34.154 64.7885 36.4683H64.0326V36.7913H65.0713V36.5992C65.1874 32.8954 66.7403 29.3821 69.4011 26.8031C72.062 24.224 75.622 22.7816 79.3276 22.7811ZM68.3849 65.4261L66.4488 56.9554H65.5287V69.2093H66.4488V60.7404L68.3849 69.2093H69.2683V56.9554H68.3849V65.4261ZM39.9561 22.8091V23.8758H40.2912V23.146H50.1778V22.8091H39.9561ZM59.4481 56.9554H58.8737V69.2093H62.0319V68.3469H59.7623V63.284H62.0319V62.4111H59.7623V57.8161H62.0319V56.9554H59.4481ZM53.3063 66.8263L52.058 56.9519H50.9913L52.5364 69.2058H54.0692L55.6177 56.9519H54.5511L53.3063 66.8263ZM62.4282 38.2927V37.432H61.674L59.4935 23.9281H55.9041L53.7235 37.432H52.7721V38.2927H53.5839L51.7804 49.4659H52.9571L54.7553 38.2927H57.9624L59.5895 48.9875L59.9247 48.9369L58.3063 38.2875H59.0483L60.8465 49.4607H63.6171L61.8136 38.2875L62.4282 38.2927ZM54.895 37.432L56.4051 28.0465L57.8314 37.432H54.895ZM58.1736 37.432L56.5814 26.9571L56.9009 24.9547L58.9086 37.432H58.1736ZM95.2739 56.9554H94.6995V69.2093H97.8577V68.3469H95.5882V63.284H97.8577V62.4111H95.5882V57.8161H97.8577V56.9554H95.2739ZM73.9959 56.9554H72.4596V57.8161H73.9959V69.2093H74.8828V57.8161H76.4209V56.9554H73.9959ZM90.8395 64.2879C90.8395 64.0183 90.7809 63.7519 90.6679 63.5072C90.5549 63.2624 90.3901 63.0451 90.1849 62.8703C90.3901 62.6954 90.5549 62.4781 90.6679 62.2334C90.7809 61.9886 90.8395 61.7222 90.8395 61.4527V58.8182C90.8391 58.3234 90.6423 57.849 90.2924 57.4991C89.9425 57.1492 89.4681 56.9524 88.9733 56.9519H87.1803V69.2058H88.062V63.3172H88.9733C89.0379 63.3172 89.1042 63.3172 89.1671 63.3067C89.3932 63.3519 89.5968 63.4739 89.7432 63.6521C89.8896 63.8303 89.9697 64.0537 89.9701 64.2844V69.2058H90.9844V68.3469H90.8395V64.2879ZM89.9666 61.4527C89.966 61.6834 89.8858 61.9069 89.7394 62.0853C89.5931 62.2638 89.3897 62.3862 89.1636 62.4321C89.0992 62.425 89.0345 62.4215 88.9698 62.4216H88.0585V57.8196H88.9698C89.2343 57.8201 89.4879 57.9255 89.6748 58.1127C89.8617 58.2999 89.9666 58.5537 89.9666 58.8182V61.4527ZM82.3898 62.6852V67.5421C82.3533 67.7704 82.2365 67.9783 82.0605 68.1283C81.8846 68.2784 81.6609 68.3608 81.4296 68.3608C81.1983 68.3608 80.9746 68.2784 80.7987 68.1283C80.6227 67.9783 80.506 67.7704 80.4694 67.5421V56.9607H79.5965V67.3745C79.5965 67.8629 79.7906 68.3314 80.136 68.6768C80.4814 69.0222 80.9499 69.2163 81.4383 69.2163C81.9268 69.2163 82.3953 69.0222 82.7407 68.6768C83.0861 68.3314 83.2802 67.8629 83.2802 67.3745V56.9607H82.3898V62.6852ZM90.4747 43.5895C90.4747 43.0815 89.8008 42.9715 89.4464 42.7393C88.1405 44.8936 86.29 46.7826 83.9418 47.7812C78.5927 50.3999 71.7316 47.2208 69.7239 41.7511C67.2798 36.3094 69.1338 29.1272 74.3206 25.9864C78.5193 23.2979 84.4935 24.3698 87.718 28.1146C88.7393 28.8216 89.1548 31.5259 90.5864 29.698C87.9904 25.5081 83.0619 22.727 78.0881 23.263C71.0193 23.5633 65.2529 30.3056 65.6666 37.3115H65.1516V38.2944H65.8046C66.475 43.5511 70.4694 48.1199 75.5811 49.5078C81.1398 51.114 87.5277 48.5598 90.4747 43.5895ZM79.3015 47.6887L79.2927 47.9785H79.5232C84.6698 47.9785 88.2522 43.4673 88.2889 43.4219L88.0602 43.2473C88.0288 43.2927 84.4272 47.8196 79.3049 47.6887H79.3015ZM103.017 56.7826C102.767 56.7708 102.517 56.8098 102.283 56.8972C102.049 56.9846 101.835 57.1186 101.654 57.291C101.473 57.4635 101.329 57.671 101.23 57.9007C101.132 58.1305 101.081 58.3779 101.08 58.6279V60.4034C101.08 61.1908 101.378 61.9491 101.913 62.5263L103.074 63.7798C103.611 64.3565 103.91 65.1149 103.91 65.9027V67.3675C103.911 67.5064 103.883 67.6439 103.827 67.7709C103.77 67.8979 103.688 68.0115 103.584 68.1042C103.481 68.1968 103.359 68.2663 103.226 68.3082C103.094 68.35 102.954 68.3632 102.816 68.3469C102.575 68.3109 102.356 68.1888 102.198 68.0032C102.041 67.8176 101.956 67.5811 101.96 67.3378V64.7994H101.101V67.3099C101.094 67.7906 101.27 68.256 101.594 68.611C101.919 68.966 102.366 69.1838 102.846 69.2198C103.095 69.2311 103.344 69.1918 103.578 69.1042C103.812 69.0166 104.026 68.8825 104.207 68.7101C104.387 68.5377 104.531 68.3305 104.63 68.1009C104.728 67.8714 104.779 67.6243 104.78 67.3745V65.5623C104.78 64.7749 104.483 64.0166 103.947 63.4394L102.786 62.1859C102.251 61.6087 101.953 60.8504 101.953 60.063V58.6279C101.954 58.4889 101.983 58.3515 102.041 58.2249C102.098 58.0982 102.182 57.9853 102.286 57.8934C102.39 57.8016 102.513 57.7331 102.646 57.6923C102.779 57.6516 102.919 57.6397 103.057 57.6573C103.297 57.6943 103.516 57.8171 103.673 58.0029C103.83 58.1887 103.914 58.4249 103.91 58.6681V61.4142H104.769V58.6873C104.775 58.2068 104.597 57.7422 104.272 57.3882C103.947 57.0343 103.499 56.8177 103.02 56.7826H103.017ZM93.659 38.9351L92.1908 48.579L92.526 48.6314L93.9925 38.9858L93.659 38.9351ZM21.3352 48.8182V29.0399H21V48.8182H21.3352ZM28.404 22.8056V36.4526H27.7668V36.7895H28.7392V22.8056H28.404ZM24.7587 49.5165V38.2875H25.6316V37.4268H24.7587V23.9229H21.2147L13.4302 45.3964L13.1753 44.6981L20.9022 23.146H23.9993V22.8091H20.5409L12.9256 43.9963L5.74857 23.9281H2.18012V37.432H1.32817V38.2927H2.18012V49.4659H3.11937V27.8964L10.5827 48.6035H11.0785L3.11937 26.5591V24.7347L11.9497 49.4642H13.1281L13.9312 47.2522L14.0115 47.0287L21.9846 25.0507L21.9619 49.52L24.7587 49.5165ZM38.2661 49.4467V48.5738H32.2169V47.9418H37.7092V47.6049H32.2169V38.2875H37.2797V37.4268H32.2169V36.7878H36.3684V36.4509H32.2203V24.7329H37.697V23.8705H29.4358L29.4253 37.4268H28.5716V38.2875H29.4236L29.4131 49.4467H38.2661ZM36.8241 22.8091H28.7409V23.146H36.8241V22.8091ZM47.3862 24.7295H50.9739V23.867H41.014V24.7295H44.5982L44.5877 37.4233H43.7707V38.284H44.5859V49.4572H47.3792V38.284H48.3063V37.4233H47.3792L47.3862 24.7295ZM43.8946 39.1272H43.5594V48.6209H43.8946V39.1272ZM1.20945 63.1863H47.8227V62.8476H1.20945V63.1863ZM43.9121 36.4753V24.7382H43.5769V36.4735H42.889V36.7965H43.9121V36.4753ZM1.30198 48.6192H1.63892V39.1359H1.30198V48.6192ZM1.63892 36.4491V23.146H4.91582V22.8091H1.30198V36.4561H0.666504V36.793H1.63892V36.4491Z" fill="#4D4D4D"/>
</svg>
