<svg width="133" height="44" viewBox="0 0 133 44" fill="none" xmlns="http://www.w3.org/2000/svg">
<g clip-path="url(#clip0_534_3001)">
<path d="M16.5905 0.503906H17.7643C21.8395 0.592322 25.8482 2.22802 28.7274 5.12366C27.6643 6.20675 26.5791 7.24565 25.5382 8.32874C23.9214 6.86988 21.9724 5.74257 19.8462 5.3447C16.7013 4.68157 13.3127 5.27838 10.6771 7.06881C7.7979 8.94766 5.84891 12.1306 5.4281 15.5347C4.963 18.8945 5.91535 22.4311 8.10797 25.0394C10.212 27.5814 13.4234 29.1729 16.7455 29.2834C19.8462 29.4602 23.0798 28.5098 25.3388 26.3436C27.1107 24.8184 27.9301 22.4974 28.1959 20.2428C24.5194 20.2428 20.8429 20.2649 17.1664 20.2428V15.6894H32.6476C33.4449 20.5744 32.2932 26.0783 28.5724 29.5707C26.0919 32.0464 22.659 33.5053 19.1596 33.7926C15.7711 34.1242 12.2717 33.4832 9.25964 31.8475C5.64958 29.9244 2.77038 26.6751 1.35293 22.8511C0.0240735 19.3366 0.00192586 15.3578 1.24219 11.8212C2.37172 8.59399 4.54219 5.74257 7.3328 3.7532C10.0127 1.78594 13.2684 0.702843 16.5905 0.503906Z" fill="#4D4D4D"/>
<path d="M105.402 1.6532H110.141V33.2178C108.569 33.2178 106.974 33.2399 105.402 33.1957C105.424 22.6963 105.402 12.1747 105.402 1.6532Z" fill="#4D4D4D"/>
<path d="M43.189 12.5948C46.1125 12.0422 49.2796 12.6611 51.6937 14.4073C53.8863 15.9546 55.4145 18.386 55.8796 21.0385C56.4776 24.111 55.7246 27.4708 53.7313 29.9022C51.5829 32.621 48.0615 34.0799 44.6286 33.8589C41.4836 33.682 38.4272 32.1126 36.5668 29.5486C34.4628 26.7193 33.9534 22.8289 35.1051 19.5133C36.2568 15.9546 39.5125 13.2358 43.189 12.5948ZM43.8534 16.7945C42.6574 17.104 41.5501 17.7892 40.7527 18.7618C38.6044 21.3259 38.7373 25.5035 41.1071 27.8908C42.4581 29.2612 44.4957 29.9022 46.3782 29.5265C48.1279 29.217 49.6561 28.0455 50.4977 26.4982C51.9594 23.8678 51.5386 20.2428 49.3017 18.1871C47.8621 16.8608 45.7581 16.3082 43.8534 16.7945Z" fill="#4D4D4D"/>
<path d="M66.6664 12.5947C70.0107 11.9537 73.6651 12.882 76.1677 15.2251C80.2429 18.8722 80.6859 25.7024 77.2087 29.9022C75.1047 32.5546 71.6939 34.0135 68.3275 33.8588C65.1161 33.7704 61.9489 32.1789 60.0442 29.5485C57.8959 26.6529 57.4308 22.6741 58.6489 19.2922C59.8671 15.844 63.0563 13.2136 66.6664 12.5947ZM67.3308 16.7944C66.1349 17.1039 65.0275 17.7891 64.2302 18.7396C62.104 21.2595 62.1926 25.3708 64.4738 27.7802C65.8248 29.2169 67.9288 29.9243 69.8778 29.5264C71.6053 29.1948 73.1557 28.0454 73.9973 26.4981C75.4369 23.8456 75.0161 20.2206 72.757 18.1649C71.3174 16.8387 69.2134 16.3082 67.3308 16.7944Z" fill="#4D4D4D"/>
<path d="M86.5774 13.8769C89.1243 12.2854 92.5129 11.8433 95.2593 13.2138C96.123 13.5896 96.8317 14.2306 97.5183 14.8716C97.5405 14.2748 97.5183 13.6559 97.5405 13.037C99.0244 13.0591 100.508 13.037 102.014 13.0591V32.5548C101.992 35.4947 101.239 38.6114 99.1129 40.7555C96.7874 43.1206 93.2217 43.85 90.0103 43.3637C86.5774 42.8553 83.5874 40.3576 82.2586 37.1967C83.5874 36.5557 84.9827 36.0473 86.3559 35.4505C87.1311 37.263 88.7035 38.8103 90.6747 39.164C92.6458 39.5176 94.927 39.0313 96.2116 37.3956C97.5848 35.7157 97.5848 33.4169 97.5183 31.3612C96.4995 32.3559 95.3257 33.2401 93.9082 33.5716C90.8297 34.4337 87.4411 33.3727 85.0713 31.2949C82.6794 29.2171 81.2619 26.012 81.3948 22.8291C81.4613 19.2261 83.4988 15.7558 86.5774 13.8769ZM91.1619 16.7062C89.8109 16.9273 88.5485 17.6788 87.6848 18.7177C85.6029 21.1934 85.6029 25.15 87.7069 27.5814C88.9029 29.0182 90.8297 29.8139 92.6901 29.615C94.4398 29.4382 96.0566 28.333 96.9203 26.8078C98.3821 24.2216 98.1384 20.7071 96.1673 18.4525C94.9492 17.0599 93.0002 16.3747 91.1619 16.7062Z" fill="#4D4D4D"/>
<path d="M115.834 15.0039C118.492 12.5282 122.589 11.6882 126 12.9924C129.233 14.2081 131.293 17.2806 132.334 20.4415C127.528 22.4308 122.744 24.3981 117.938 26.3875C118.603 27.6474 119.621 28.7968 120.995 29.261C122.921 29.9462 125.225 29.7031 126.841 28.421C127.484 27.9347 127.993 27.2937 128.48 26.6748C129.699 27.4927 130.917 28.2884 132.135 29.1062C130.407 31.6924 127.506 33.505 124.383 33.7923C120.928 34.2123 117.252 32.886 115.015 30.1894C111.338 25.9454 111.693 18.8279 115.834 15.0039ZM118.204 19.0931C117.451 20.1762 117.141 21.5025 117.163 22.8066C120.374 21.4803 123.586 20.1541 126.797 18.8058C126.266 17.5679 124.981 16.8164 123.674 16.6175C121.57 16.2417 119.378 17.369 118.204 19.0931Z" fill="#4D4D4D"/>
</g>
<defs>
<clipPath id="clip0_534_3001">
<rect width="132" height="43" fill="white" transform="translate(0.333496 0.5)"/>
</clipPath>
</defs>
</svg>
