<svg width="171" height="31" viewBox="0 0 171 31" fill="none" xmlns="http://www.w3.org/2000/svg">
<g clip-path="url(#clip0_534_3017)">
<path fill-rule="evenodd" clip-rule="evenodd" d="M64.074 29.3209L63.413 24.9711H62.5375L63.5549 30.9577H63.9527L67.1809 24.9711H66.3321L64.074 29.3209ZM76.5859 30.8776H80.0019L80.1394 30.1521H77.5131L77.9168 28.0226H79.8259L79.9561 27.3379H78.047L78.359 25.6935H81.0208L81.1583 24.9681H77.7068L76.5859 30.8776ZM94.3313 29.0549L92.2003 24.9741H91.8854L90.7645 30.8806H91.5127L92.3172 26.6487L94.4939 30.9501H94.7305L95.8677 24.9635H95.118L94.3313 29.0549ZM105.858 25.6935H107.696L106.713 30.8746H107.507L108.486 25.6935H110.409L110.548 24.9681H105.996L105.858 25.6935ZM123.2 28.9914C123.146 29.3521 122.964 29.6798 122.688 29.9118C122.413 30.1438 122.063 30.2638 121.706 30.2488C121.552 30.261 121.398 30.2357 121.255 30.175C121.112 30.1143 120.986 30.02 120.886 29.8997C120.794 29.7739 120.732 29.6287 120.703 29.4748C120.674 29.321 120.679 29.1625 120.719 29.011L121.486 24.9681H120.698L119.919 29.0715C119.802 29.6851 119.888 30.1556 120.174 30.4831C120.461 30.8106 120.929 30.9743 121.576 30.9743C122.144 30.9943 122.703 30.8175 123.16 30.4725C123.594 30.1294 123.885 29.63 123.972 29.076L124.753 24.9681H123.963L123.2 28.9914ZM137.271 24.9106C137.096 24.9106 136.818 24.9212 136.434 24.9409C136.049 24.9605 135.842 24.9711 135.815 24.9711L134.693 30.8776H135.483L135.972 28.3007C136.348 28.3279 136.624 28.3415 136.8 28.3415L137.861 30.8776H138.764L137.603 28.1571C137.952 28.069 138.266 27.8757 138.505 27.6024C138.774 27.3289 138.956 26.9801 139.03 26.6004C139.245 25.4698 138.659 24.9041 137.271 24.9031V24.9106ZM138.205 26.5883C138.13 26.9888 137.969 27.2669 137.725 27.4226C137.481 27.5782 137.12 27.6568 136.646 27.6568C136.464 27.6566 136.283 27.643 136.102 27.616L136.466 25.6966C136.703 25.6709 136.859 25.6573 136.939 25.6573C137.439 25.6573 137.79 25.7298 137.994 25.8749C138.198 26.02 138.266 26.2497 138.205 26.5807V26.5883ZM148.835 30.8776H152.236L152.375 30.1521H149.756L150.16 28.0226H152.069L152.199 27.3379H150.29L150.602 25.6966H153.264L153.401 24.9711H149.95L148.835 30.8776ZM164.254 25.3066C163.908 25.5756 163.671 25.9658 163.588 26.4024C163.517 26.7117 163.537 27.0358 163.646 27.3334C163.754 27.5918 163.988 27.814 164.346 28.0029L164.768 28.2251C165.148 28.4266 165.374 28.6125 165.446 28.7828C165.518 28.9581 165.535 29.1517 165.496 29.3375C165.447 29.6004 165.303 29.8348 165.092 29.9934C164.865 30.1683 164.586 30.2594 164.301 30.2519C164.107 30.2482 163.914 30.2109 163.732 30.1415C163.551 30.0811 163.383 29.9873 163.235 29.865L162.806 30.607C163.168 30.868 163.605 30.9983 164.048 30.9773C164.58 30.9937 165.103 30.8312 165.536 30.5148C165.915 30.2496 166.18 29.8453 166.275 29.3858C166.357 29.0519 166.341 28.7007 166.228 28.3762C166.08 28.0716 165.832 27.8298 165.527 27.6931L165.098 27.4634C164.905 27.3687 164.724 27.251 164.558 27.1127C164.475 27.0266 164.416 26.919 164.387 26.8014C164.357 26.666 164.357 26.5256 164.387 26.3903C164.427 26.1532 164.55 25.9387 164.731 25.7857C164.922 25.6272 165.163 25.544 165.409 25.5515C165.607 25.5539 165.803 25.5907 165.988 25.6603C166.148 25.7091 166.298 25.7852 166.432 25.8855L166.799 25.1842C166.589 24.9726 166.164 24.8668 165.526 24.8668C165.065 24.8549 164.615 25.0078 164.254 25.2991V25.3066ZM76.1985 1.24236L70.8098 10.8593L68.8534 0.590951H68.5074L62.2758 11.8175L60.0857 1.23782H56.3415L60.3741 21.0143H60.6935L66.5347 10.8276L68.5606 21.0143H68.8268L80.2977 1.24236H76.1985ZM85.7839 7.89245C82.0101 7.89245 78.7213 10.7988 77.9627 14.7919C77.2514 18.5417 79.3217 20.9312 83.2552 20.9312C84.8242 20.9312 86.1033 20.6289 87.8794 19.8173L88.9145 16.5028H88.4309C86.8472 17.5608 85.9081 17.8887 84.5521 17.8887C82.399 17.8887 81.5073 16.9925 81.664 14.9007H89.7175C89.8853 14.3761 90.0221 13.8416 90.1271 13.3002C90.7778 9.88143 89.1866 7.89849 85.7839 7.89849V7.89245ZM87.0394 13.3244H81.9894C82.6489 11.5319 83.7536 10.6039 85.1628 10.6039C86.5973 10.6145 87.2627 11.5923 87.0394 13.3304V13.3244ZM99.7569 7.89245C98.7218 7.89245 97.8759 8.13578 96.7254 8.73429L98.2071 0.915899L94.0222 1.67159L90.3652 20.9372L93.0787 20.3674L93.3819 20.449C94.4591 20.7606 95.572 20.9248 96.6914 20.9372C100.227 20.9372 103.346 18.1124 104.085 14.2282C104.764 10.6145 102.923 7.89849 99.7525 7.89849L99.7569 7.89245ZM100.172 14.3582C99.7909 16.3683 98.1731 17.8887 96.3661 17.8887C95.9115 17.8915 95.4603 17.8085 95.0352 17.6439L96.1812 11.6135C96.8026 11.3278 97.4741 11.1735 98.1554 11.1601C99.717 11.1585 100.533 12.4614 100.172 14.3582ZM117.811 8.35947C118.264 7.67727 118.581 6.91123 118.746 6.10448C119.337 2.95324 117.136 0.590951 113.626 0.590951C111.422 0.590951 109.529 1.46 107.12 3.61372L109.055 6.4385C109.918 5.6828 110.287 5.40622 110.935 5.07825C111.518 4.78896 112.155 4.63172 112.803 4.61728C114.105 4.61728 114.747 5.29589 114.536 6.40978C114.366 7.32719 113.718 8.06172 112.683 8.46375C111.85 8.79021 111.277 8.87183 109.783 8.89903L109.175 12.1047C111.246 12.1319 112.01 12.2936 112.661 12.7833C113.121 13.1642 113.3 13.7612 113.161 14.4942C112.891 15.9073 111.643 16.8852 110.055 16.8852C109.285 16.8852 108.384 16.5829 107.6 16.0978C107.13 15.7713 106.122 15.07 105.53 14.4443C105.53 14.4443 105.418 15.2937 104.78 16.5512C104.396 17.2871 103.958 17.9919 103.469 18.6595C104.309 19.4152 104.504 19.5482 105.126 19.9004C106.434 20.6469 107.91 21.0309 109.407 21.0143C113.368 21.0143 116.729 18.4344 117.393 14.9022C117.76 12.9737 117.263 11.6694 115.703 10.3681C116.831 9.60938 117.221 9.22851 117.811 8.35947ZM122.802 18.655C123.039 17.4066 122.225 16.3743 120.976 16.3743C119.753 16.3743 118.573 17.4066 118.336 18.655C118.1 19.9034 118.886 20.9372 120.111 20.9372C121.359 20.9372 122.564 19.9049 122.802 18.655ZM133.238 17.1074C132.686 17.2646 132.116 17.347 131.543 17.3522C129.71 17.3522 128.677 16.2111 128.986 14.5803C129.337 12.7334 130.93 11.4835 132.979 11.4835C134.069 11.4835 134.814 11.7555 135.947 12.5158L137.047 8.95797C135.91 8.22344 134.723 7.90001 133.202 7.90001C129.062 7.90001 125.711 10.5343 124.975 14.4186C124.247 18.25 126.453 20.9387 130.274 20.9387C131.71 20.9387 133.022 20.6138 134.659 19.8248L135.79 15.8317C134.668 16.5905 134.201 16.8081 133.238 17.1074ZM144.876 7.89849C143.055 7.90161 141.292 8.55464 139.892 9.74481C138.491 10.935 137.542 12.5875 137.207 14.4171C136.484 18.2212 138.653 20.9372 142.4 20.9372C144.222 20.9344 145.985 20.2813 147.386 19.0908C148.787 17.9003 149.736 16.2472 150.071 14.4171C150.792 10.6145 148.625 7.89849 144.876 7.89849ZM146.191 14.4171C145.782 16.5633 144.546 17.8933 142.979 17.8933C141.411 17.8933 140.679 16.5617 141.071 14.4972C141.494 12.2694 142.698 10.9394 144.299 10.9394C145.867 10.9409 146.597 12.2709 146.191 14.4171ZM167.83 8.14183C166.367 8.14183 165.243 8.74638 163.541 10.4512C163 8.82195 162.118 8.14183 160.583 8.14183C159.174 8.14183 158.061 8.68593 156.305 10.2336L156.631 8.46375H152.776L150.517 20.3629H154.557L155.764 14.006C156.011 12.7017 156.83 11.8901 157.867 11.8901C158.904 11.8901 159.387 12.7047 159.14 14.006L157.934 20.3674H161.975L163.182 14.0105C163.429 12.7062 164.217 11.8946 165.285 11.8946C166.32 11.8946 166.805 12.7092 166.556 14.0105L165.35 20.3674H169.39L170.891 12.4614C171.39 9.85423 170.194 8.14183 167.83 8.14183ZM10.2746 21.0082L20.4308 20.9674L15.5789 15.6338L20.4308 10.2396H10.242V12.9299H13.9538L11.6912 15.6186L14.0159 18.3104H10.2746V21.0082ZM0 0.0574326V2.74619H39.127L26.8531 15.6186L38.6701 28.3143H0.415537V31.006H45.2403L30.7482 15.6353L45.7504 0L0 0.0574326ZM6.10144 26.2271H32.9634L22.8486 15.6292L32.8718 5.09488L5.8604 5.06616V7.75794H26.4701L18.9668 15.6171L26.4065 23.5338H6.10144V26.2271Z" fill="#4D4D4D"/>
</g>
<defs>
<clipPath id="clip0_534_3017">
<rect width="171" height="31" fill="white"/>
</clipPath>
</defs>
</svg>
